<svg width="40" height="40" viewBox="0 0 40 40" fill="none" xmlns="http://www.w3.org/2000/svg">
<circle cx="19.9985" cy="20" r="20" fill="#2F89CE"/>
<path d="M9.34924 20.3741L13.9473 22.0886L15.7398 27.8557C15.8177 28.2454 16.2853 28.3233 16.5971 28.0895L19.1689 25.9853C19.4027 25.7515 19.7923 25.7515 20.1041 25.9853L24.7022 29.3364C25.0139 29.5702 25.4815 29.4144 25.5594 29.0247L28.9885 12.6587C29.0664 12.269 28.6768 11.8793 28.2871 12.0352L9.34924 19.3609C8.88163 19.5168 8.88163 20.2182 9.34924 20.3741ZM15.506 21.2313L24.5463 15.6981C24.7021 15.6201 24.858 15.8539 24.7022 15.9319L17.2985 22.868C17.0647 23.1018 16.8309 23.4135 16.8309 23.8032L16.5971 25.6736C16.5971 25.9074 16.2074 25.9853 16.1295 25.6736L15.1943 22.2445C14.9605 21.8548 15.1163 21.3872 15.506 21.2313Z" fill="white"/>
</svg>
