<svg width="40" height="40" viewBox="0 0 40 40" fill="none" xmlns="http://www.w3.org/2000/svg">
<g id="watsapp">
<circle id="Ellipse" cx="19.9985" cy="20" r="20" fill="#48C95F"/>
<path id="Vector" d="M27.9254 12.0625C25.9498 10.0937 23.3156 9 20.5351 9C14.7546 9 10.0717 13.6667 10.0717 19.4271C10.0717 21.25 10.5839 23.0729 11.4619 24.6042L9.99854 30L15.5595 28.5417C17.0961 29.3438 18.779 29.7812 20.5351 29.7812C26.3156 29.7812 30.9985 25.1146 30.9985 19.3542C30.9254 16.6563 29.901 14.0312 27.9254 12.0625ZM25.5839 23.1458C25.3644 23.7292 24.34 24.3125 23.8278 24.3854C23.3888 24.4583 22.8034 24.4583 22.218 24.3125C21.8522 24.1667 21.34 24.0208 20.7546 23.7292C18.1205 22.6354 16.4376 20.0104 16.2912 19.7917C16.1449 19.6458 15.1937 18.4062 15.1937 17.0937C15.1937 15.7812 15.8522 15.1979 16.0717 14.9062C16.2912 14.6146 16.5839 14.6146 16.8034 14.6146C16.9498 14.6146 17.1693 14.6146 17.3156 14.6146C17.4619 14.6146 17.6815 14.5417 17.901 15.0521C18.1205 15.5625 18.6327 16.875 18.7058 16.9479C18.779 17.0938 18.779 17.2396 18.7058 17.3854C18.6327 17.5312 18.5595 17.6771 18.4132 17.8229C18.2668 17.9687 18.1205 18.1875 18.0473 18.2604C17.901 18.4062 17.7546 18.5521 17.901 18.7708C18.0473 19.0625 18.5595 19.8646 19.3644 20.5937C20.3888 21.4687 21.1937 21.7604 21.4863 21.9063C21.779 22.0521 21.9254 21.9792 22.0717 21.8333C22.218 21.6875 22.7302 21.1042 22.8766 20.8125C23.0229 20.5208 23.2424 20.5938 23.4619 20.6667C23.6815 20.7396 24.9985 21.3958 25.218 21.5417C25.5107 21.6875 25.6571 21.7604 25.7302 21.8333C25.8034 22.0521 25.8034 22.5625 25.5839 23.1458Z" fill="white"/>
</g>
</svg>
